<mxfile host="app.diagrams.net" modified="2023-03-26T06:50:15.223Z" agent="Mozilla/5.0 (Windows NT 10.0; Win64; x64; rv:109.0) Gecko/20100101 Firefox/111.0" etag="ZnYyqgmii3Ov_h2ggcdS" version="21.1.1" type="github">
  <diagram name="Page-1" id="oF7KvoZOpcJt9PM3kyQu">
    <mxGraphModel dx="820" dy="676" grid="1" gridSize="10" guides="1" tooltips="1" connect="1" arrows="1" fold="1" page="1" pageScale="1" pageWidth="827" pageHeight="1169" math="0" shadow="0">
      <root>
        <mxCell id="0" />
        <mxCell id="1" parent="0" />
      </root>
    </mxGraphModel>
  </diagram>
</mxfile>
